<svg id="Layer_1" xmlns="http://www.w3.org/2000/svg" viewBox="0 0 12 12">
	<style>
		.st0{fill-rule:evenodd;clip-rule:evenodd;fill:#1E3240;} .st1{fill:#1E3240;}
	</style>
	<path class="st0" d="M6.4.2C3.3.2.9 2.7.9 5.7c0 2.5 1.6 4.5 3.8 5.3.2 0 .3-.1.3-.3v-1C3.4 10 3.1 9 3.1 9c-.2-.6-.6-.8-.6-.8-.5-.3 0-.3 0-.3.6 0 .9.6.9.6.5.8 1.3.6 1.6.4 0-.4.2-.6.4-.7-1.3-.2-2.6-.6-2.6-2.8 0-.6.2-1.1.6-1.5-.1-.1-.2-.7.1-1.4 0 0 .5-.1 1.5.6.4-.1.9-.2 1.4-.2.5 0 .9.1 1.4.2 1.1-.7 1.5-.6 1.5-.6.3.8.1 1.3.1 1.5.4.4.6.9.6 1.5 0 2.1-1.3 2.6-2.5 2.7.2.2.4.5.4 1v1.5c0 .1.1.3.4.3 2.2-.7 3.8-2.8 3.8-5.3-.2-3-2.7-5.5-5.7-5.5z"/>
	<path class="st1" d="M2.9 8.1c0 .1 0 .1 0 0-.1 0-.2 0-.1-.1l.1.1zm0 0M3.2 8.4h-.1v-.1h.1v.1zm-.1-.1M3.4 8.7h-.1v-.1h.1v.1zm0 0M3.7 9h-.1s-.1-.1 0-.1h.1V9zm0 0M4.1 9.2s-.1.1-.1 0c-.1 0-.1-.1-.1-.1s.1-.1.1 0c.1 0 .1.1.1.1zm0 0M4.5 9.2l-.1.1c-.1 0-.1 0-.1-.1l.1-.1.1.1zm0 0M5 9.2s0 .1-.1.1-.1 0-.1-.1c0 0 0-.1.1-.1 0 0 .1 0 .1.1zm0 0"/>
</svg>